<?xml version="1.0" standalone="no"?>
<!DOCTYPE svg PUBLIC "-//W3C//DTD SVG 20010904//EN"
 "http://www.w3.org/TR/2001/REC-SVG-20010904/DTD/svg10.dtd">
<svg version="1.0" xmlns="http://www.w3.org/2000/svg"
 width="1280.000000pt" height="1219.000000pt" viewBox="0 0 1280.000000 1219.000000"
 preserveAspectRatio="xMidYMid meet">
<metadata>
Created by potrace 1.15, written by Peter Selinger 2001-2017
</metadata>
<g transform="translate(0.000000,1219.000000) scale(0.100000,-0.100000)"
fill="#138F89" fill-opacity="0.1" stroke="none">
<!-- Sarcelle #138F89 : la reference principale de la palette (primary-500).
     L'opacite est cuite dans le fichier plutot que posee en CSS : un fond applique par
     background-image ne peut pas etre attenue sans passer par un pseudo-element, qui
     risquerait de se retrouver au-dessus du contenu. A 10 %, l'embleme se distingue dans
     son coin sans jamais passer derriere du texte : il est ancre hors de la zone de lecture. -->
<path d="M510 12118 c4 -50 15 -81 52 -149 142 -259 412 -608 702 -908 61 -62
73 -79 50 -67 -18 8 -168 107 -335 219 -342 229 -500 326 -653 397 -96 45
-265 110 -287 110 -24 0 163 -284 295 -448 86 -108 222 -247 337 -348 54 -47
99 -92 99 -100 0 -16 -37 -38 -42 -25 -2 5 -26 20 -53 34 -28 14 -127 80 -220
147 -201 144 -298 195 -367 195 -34 0 -53 -6 -68 -20 l-20 -21 45 -93 c69
-141 156 -264 358 -506 102 -121 184 -221 182 -223 -1 -1 -58 30 -126 69 -198
114 -314 146 -368 102 l-21 -18 20 -73 c59 -212 195 -403 463 -654 78 -73 145
-138 149 -144 4 -6 2 -16 -5 -22 -9 -8 -46 3 -132 40 -185 77 -254 99 -330
104 -81 6 -138 -15 -143 -53 -5 -32 52 -159 110 -249 69 -105 224 -258 377
-372 68 -51 131 -97 140 -102 58 -32 -89 -12 -259 36 -200 56 -285 56 -355 0
l-29 -23 56 -89 c31 -49 81 -134 113 -189 70 -124 92 -147 204 -215 l90 -55
-43 -23 c-26 -14 -52 -40 -65 -62 l-21 -38 54 -109 c87 -170 171 -259 344
-361 48 -29 94 -56 102 -61 13 -8 12 -10 -5 -16 -140 -48 -188 -84 -199 -154
-6 -38 -3 -45 44 -103 28 -35 60 -83 71 -108 30 -68 55 -89 166 -141 57 -27
103 -51 103 -55 0 -3 -24 -28 -54 -55 -64 -58 -86 -100 -86 -164 0 -57 17 -91
69 -138 108 -97 282 -134 385 -82 36 18 65 25 108 25 53 0 73 -10 49 -24 -5
-3 -12 -17 -15 -32 -13 -49 -128 -133 -186 -135 l-35 -1 37 -17 c53 -25 54
-27 18 -46 -49 -25 -119 -94 -142 -139 -27 -52 -21 -129 13 -177 13 -19 23
-40 21 -46 -2 -9 9 -13 30 -13 83 0 135 -34 177 -116 21 -40 55 -77 99 -107
21 -13 28 -13 57 -1 52 22 72 -1 90 -104 8 -46 22 -98 30 -116 28 -59 99 -72
187 -34 61 26 64 24 73 -86 9 -98 27 -148 67 -181 41 -35 74 -31 152 16 38 22
72 37 76 32 12 -12 30 -118 30 -175 0 -39 5 -54 26 -75 24 -24 31 -25 95 -21
77 6 109 -8 109 -46 0 -37 21 -86 40 -96 46 -25 116 3 174 69 11 11 27 21 36
21 20 0 72 -95 115 -208 21 -57 32 -73 51 -78 33 -8 66 1 123 36 81 50 98 42
150 -75 36 -78 32 -75 127 -114 l71 -30 79 19 79 20 18 -25 c10 -14 26 -25 35
-25 10 0 31 -9 47 -20 17 -11 37 -20 45 -20 8 0 28 -7 45 -16 39 -20 65 -12
143 42 34 24 68 44 75 44 7 0 57 -25 111 -55 55 -30 105 -55 112 -55 29 0 122
42 144 65 l22 24 87 -43 c47 -24 104 -46 126 -49 54 -8 115 7 135 34 14 17 21
19 37 11 11 -6 29 -8 41 -5 17 4 24 -1 32 -21 8 -22 16 -26 50 -26 36 0 42 -4
65 -40 24 -38 28 -40 60 -34 40 7 46 -6 13 -28 l-22 -15 28 -36 28 -37 -46
-51 c-48 -53 -50 -69 -13 -70 22 0 22 0 -1 -10 -35 -13 -21 -34 22 -33 l36 1
0 -52 c0 -30 -5 -57 -12 -62 -7 -5 -62 -27 -123 -48 -162 -56 -351 -137 -518
-222 -153 -78 -196 -110 -66 -49 64 30 159 61 159 51 0 -2 -35 -23 -77 -46
-43 -23 -122 -69 -176 -101 -91 -55 -307 -143 -330 -135 -6 2 19 20 56 41 37
20 67 38 67 40 0 1 -26 -3 -57 -10 -32 -7 -105 -22 -162 -33 -104 -20 -184
-53 -326 -136 -33 -19 -125 -55 -205 -81 -176 -57 -193 -64 -250 -120 -25 -24
-75 -63 -110 -87 -69 -45 -130 -116 -145 -169 -6 -18 -14 -33 -20 -34 -5 0
-27 -8 -47 -17 -48 -20 -50 -50 -6 -87 23 -19 31 -35 31 -58 0 -26 4 -32 22
-32 22 0 50 22 40 32 -3 3 27 32 67 64 40 32 114 93 164 136 51 43 95 78 99
78 4 0 -33 -43 -83 -95 -50 -51 -93 -102 -97 -112 -3 -10 -33 -38 -65 -63 -67
-50 -89 -84 -191 -293 -83 -169 -89 -198 -56 -264 48 -93 153 -216 237 -276
21 -15 22 -16 2 -7 -20 10 -22 8 -22 -14 0 -14 -12 -54 -26 -89 l-26 -63 27
-53 c21 -42 25 -61 20 -92 -6 -34 -3 -44 23 -73 17 -19 33 -44 37 -56 5 -15
34 -35 88 -61 45 -22 94 -47 109 -57 22 -14 31 -15 47 -5 16 10 20 9 24 -8 3
-12 1 -17 -5 -13 -7 5 -8 -2 -3 -22 5 -16 7 -71 6 -122 -3 -106 4 -122 56
-122 26 0 43 -9 76 -41 37 -36 38 -38 10 -19 -52 34 -39 17 29 -40 53 -44 67
-51 94 -47 31 5 31 5 37 -45 14 -111 114 -260 203 -299 44 -20 169 -49 210
-49 13 0 32 8 42 18 22 21 67 42 92 42 17 0 20 -7 20 -53 0 -64 22 -98 122
-194 67 -64 89 -74 209 -95 63 -11 69 -10 120 14 30 14 72 34 94 43 92 39 219
181 232 258 8 52 65 119 85 99 10 -10 10 -16 0 -30 -30 -42 -55 -111 -57 -157
-1 -29 -12 -69 -24 -94 -12 -23 -20 -45 -18 -48 7 -6 97 41 129 69 15 13 35
47 45 77 10 29 22 54 28 55 5 0 15 -17 23 -39 31 -91 27 -86 64 -67 57 28 148
103 190 156 58 73 70 69 85 -29 6 -44 12 -107 13 -140 2 -100 18 -112 20 -15
l1 85 15 -35 c12 -27 14 -55 9 -126 l-7 -90 37 -62 c34 -59 77 -100 120 -117
11 -4 76 -11 145 -16 69 -4 146 -11 172 -15 38 -5 56 -2 100 19 30 14 60 33
67 40 6 8 28 18 49 22 20 4 43 12 51 18 12 10 13 9 8 -6 -5 -13 3 -27 30 -50
60 -53 67 -56 172 -72 130 -19 180 -19 187 0 5 11 21 15 60 15 30 0 54 1 54 3
0 1 -4 17 -10 36 -12 44 -1 65 58 102 52 33 75 35 131 13 36 -14 47 -14 125 1
77 14 89 14 122 0 53 -22 62 -20 144 35 41 27 81 50 88 50 7 0 31 -9 54 -21
38 -19 47 -20 117 -10 113 17 182 40 214 72 23 24 36 29 77 29 47 0 52 3 79
40 15 21 34 53 41 70 10 25 18 30 47 30 18 0 62 -9 96 -21 96 -32 152 -35 222
-9 33 12 72 24 88 27 15 3 32 14 38 25 6 11 23 24 38 29 33 12 51 46 51 94 0
86 67 165 141 165 37 0 94 26 149 70 l35 28 16 -21 c16 -21 17 -20 90 37 108
83 153 159 174 289 8 48 46 84 112 103 87 26 139 100 149 217 7 84 13 109 24
102 5 -3 52 -8 105 -10 l96 -5 73 67 c40 38 101 84 136 103 135 75 171 194
115 386 -33 114 -32 123 16 157 22 15 48 41 57 58 9 16 40 65 67 107 41 63 59
82 100 102 48 24 50 26 53 72 7 102 -38 237 -106 321 -17 21 -28 45 -25 53 9
24 -18 117 -49 166 -63 100 -196 192 -296 204 -26 3 -126 33 -222 66 -96 33
-276 90 -400 128 -318 96 -772 246 -855 282 -38 17 -176 66 -306 109 -279 92
-333 115 -385 161 -22 19 -61 49 -89 68 -27 18 -74 56 -102 84 -46 43 -53 56
-53 88 l0 38 93 2 c50 1 109 1 131 0 l38 -3 -6 36 c-5 25 -3 36 6 39 7 2 51
11 98 20 46 9 91 23 99 31 12 12 11 13 -10 9 -21 -5 -22 -4 -6 6 10 6 23 9 30
7 7 -2 22 0 35 4 25 10 112 -27 112 -47 0 -20 57 -74 78 -74 11 0 79 29 152
65 123 61 134 65 150 50 10 -9 24 -30 30 -46 15 -35 67 -69 108 -69 16 0 61
15 98 32 73 35 137 41 230 24 31 -6 56 -4 95 9 81 27 125 61 175 136 l45 69
54 -41 c87 -65 144 -70 180 -15 9 13 41 80 72 148 30 67 59 127 64 132 5 6 22
-6 41 -29 71 -84 98 -105 133 -105 48 0 105 51 105 94 0 53 10 59 92 57 113
-3 139 25 153 169 4 36 13 75 22 88 l14 23 35 -30 c124 -109 215 -76 260 94 8
28 14 62 14 77 l0 26 40 -19 c22 -11 60 -19 89 -19 77 0 104 29 142 151 17 54
34 101 39 104 4 3 52 14 107 25 109 22 126 34 137 98 8 54 25 65 85 57 59 -8
82 2 116 53 14 20 33 37 43 37 15 0 17 11 17 82 0 100 -11 117 -116 188 -72
49 -92 76 -70 98 7 7 14 7 23 -1 12 -10 78 -14 78 -5 0 2 -30 23 -67 47 -38
24 -78 54 -89 67 -24 27 -64 90 -64 102 0 4 18 7 40 7 46 0 139 -33 193 -68
31 -21 44 -24 85 -18 65 9 182 66 229 113 48 48 65 102 58 180 -9 90 -12 96
-50 122 -42 28 -39 31 55 62 130 43 190 84 190 129 0 35 23 65 43 57 30 -11
50 21 42 69 -5 39 -4 43 17 46 59 8 -3 170 -70 183 -18 3 -41 15 -50 25 -11
13 -18 16 -23 9 -4 -7 -12 -8 -18 -4 -8 4 0 14 21 26 88 50 148 78 182 85 99
18 309 322 311 449 0 49 -1 50 -42 70 -50 23 -54 38 -15 62 110 69 255 195
325 281 116 143 130 228 44 274 -67 36 -293 27 -402 -17 -78 -31 -118 -35
-123 -14 -2 12 14 22 56 37 156 57 491 363 554 507 38 85 45 138 23 171 -16
25 -20 26 -79 21 -33 -3 -124 -26 -201 -52 -147 -48 -225 -60 -247 -36 -9 10
-10 15 -2 18 35 13 273 205 330 266 157 169 300 394 311 489 13 116 -68 124
-272 28 -44 -21 -127 -57 -185 -80 -58 -24 -111 -47 -117 -53 -9 -6 -13 -6
-13 1 0 6 4 14 10 17 5 3 10 16 11 28 1 13 22 40 53 67 28 25 40 32 27 17 -50
-56 -6 -23 146 112 179 156 328 306 365 366 14 23 35 74 47 115 20 73 21 76 3
100 -41 55 -84 41 -382 -131 -75 -43 -174 -94 -220 -114 -47 -21 -89 -41 -94
-46 -14 -12 -43 -11 -51 2 -9 14 80 97 255 237 316 253 509 452 536 555 8 29
14 53 14 55 0 8 -123 -11 -200 -30 -67 -17 -112 -39 -215 -101 -147 -89 -480
-273 -720 -397 -88 -45 -179 -98 -203 -117 -24 -20 -45 -34 -47 -32 -2 2 14
34 36 70 27 47 84 111 196 220 421 411 508 502 576 604 66 100 93 154 128 253
17 48 17 52 1 52 -52 0 -364 -185 -387 -229 -7 -15 -78 -77 -157 -136 -79 -60
-257 -207 -397 -327 -150 -128 -282 -233 -320 -254 -36 -20 -73 -44 -81 -54
-8 -10 -31 -20 -50 -24 l-35 -6 37 32 c21 20 39 46 43 64 3 18 15 40 25 49 11
10 79 109 151 221 72 112 133 204 135 204 3 0 3 -3 1 -7 -3 -5 -55 -91 -117
-193 -62 -102 -114 -188 -117 -192 -2 -5 -2 -8 0 -8 11 0 199 286 247 375 129
240 161 345 108 345 -43 0 -144 -78 -346 -267 -188 -177 -285 -282 -902 -983
-413 -468 -714 -802 -747 -827 -43 -33 -143 -157 -435 -540 -383 -502 -415
-543 -429 -543 -5 0 5 32 22 71 16 38 33 98 38 132 6 48 19 82 59 152 29 49
52 97 52 107 0 17 -2 17 -50 -1 -65 -25 -124 -63 -269 -173 -91 -70 -121 -99
-140 -136 -13 -26 -59 -106 -101 -178 -43 -72 -95 -163 -114 -203 -66 -130
-126 -341 -97 -341 8 0 9 -6 2 -17 -5 -10 -21 -63 -36 -118 -15 -55 -35 -114
-44 -131 -9 -17 -70 -92 -136 -167 l-120 -137 -221 -108 c-121 -60 -236 -123
-255 -140 -26 -22 -39 -28 -47 -20 -6 6 -8 16 -6 22 7 19 -282 473 -393 619
-24 31 -94 144 -154 250 -223 388 -281 451 -447 478 -138 23 -272 -23 -338
-114 -38 -52 -38 -53 -47 -186 -9 -133 -9 -135 13 -153 21 -17 22 -24 17 -94
-13 -148 -69 -272 -248 -554 -58 -91 -114 -178 -123 -195 -10 -16 -29 -38 -42
-48 -24 -18 -25 -17 -72 14 -26 18 -123 89 -217 159 -93 70 -198 143 -232 164
-71 43 -110 88 -153 177 -32 69 -39 96 -70 301 -72 465 -243 820 -503 1043
-54 48 -202 145 -219 145 -20 0 -6 -101 28 -195 20 -55 51 -142 69 -193 19
-52 36 -96 39 -100 3 -3 6 -9 6 -14 0 -21 -22 -1 -81 75 -35 45 -80 100 -100
122 -20 22 -47 61 -60 86 -13 25 -140 217 -281 427 -142 209 -258 388 -258
397 0 9 -37 58 -83 108 -158 177 -301 363 -518 678 -401 585 -505 728 -660
914 -160 191 -351 376 -514 499 -50 37 -50 38 -56 14 -15 -51 -8 -103 27 -196
48 -130 146 -329 238 -486 42 -71 76 -131 76 -133 0 -19 -64 41 -323 301 -318
320 -485 466 -680 597 -109 73 -225 139 -244 139 -5 0 -6 -28 -3 -62z m9520
-1938 c0 -5 -5 -10 -11 -10 -5 0 -7 5 -4 10 3 6 8 10 11 10 2 0 4 -4 4 -10z
m-16 -53 c-2 -7 -14 -19 -27 -26 -21 -13 -21 -12 2 13 27 29 33 32 25 13z
m-133 -375 c-27 -39 -98 -102 -114 -102 -10 1 120 129 131 130 2 0 -6 -13 -17
-28z m-481 -236 c0 -2 -8 -10 -17 -17 -16 -13 -17 -12 -4 4 13 16 21 21 21 13z
m-30 -40 c0 -2 -8 -10 -17 -17 -16 -13 -17 -12 -4 4 13 16 21 21 21 13z m-30
-40 c0 -2 -8 -10 -17 -17 -16 -13 -17 -12 -4 4 13 16 21 21 21 13z m475 -276
c-10 -11 -22 -20 -27 -20 -4 0 -3 9 4 20 7 11 19 20 27 20 11 0 10 -5 -4 -20z
m-6080 -353 c16 -39 12 -45 -19 -22 -14 10 -17 21 -12 41 8 31 10 30 31 -19z
m5732 -24 c-3 -10 -5 -2 -5 17 0 19 2 27 5 18 2 -10 2 -26 0 -35z m-8872 -363
c3 -5 1 -10 -4 -10 -6 0 -10 -3 -10 -7 3 -20 -2 -24 -16 -13 -8 7 -15 19 -15
26 0 16 36 19 45 4z m5620 -10 l20 -9 -20 0 c-11 0 -27 4 -35 9 -13 9 -13 10
0 9 8 0 24 -4 35 -9z m81 -77 c-4 -4 -11 -1 -16 7 -16 25 -11 35 7 17 9 -9 13
-20 9 -24z m2294 -37 c0 -2 -8 -10 -17 -17 -16 -13 -17 -12 -4 4 13 16 21 21
21 13z m-6440 -275 c0 -5 -7 -12 -16 -15 -22 -9 -24 -8 -24 9 0 8 9 15 20 15
11 0 20 -4 20 -9z m240 -161 c12 -8 11 -10 -7 -10 -12 0 -25 5 -28 10 -8 13
15 13 35 0z m3527 -12 c-3 -8 -6 -5 -6 6 -1 11 2 17 5 13 3 -3 4 -12 1 -19z
m123 -12 c0 -3 -4 -8 -10 -11 -5 -3 -10 -1 -10 4 0 6 5 11 10 11 6 0 10 -2 10
-4z m-4185 -52 c-44 -8 -84 -12 -90 -10 -14 5 93 24 135 24 19 0 -1 -7 -45
-14z m4840 -31 l18 -28 -21 19 c-12 11 -22 23 -22 28 0 14 7 9 25 -19z m-5721
-17 c-4 -9 3 -16 18 -19 17 -3 15 -5 -9 -6 -35 -1 -41 7 -21 27 16 16 19 15
12 -2z m7836 -136 c0 -5 -7 -10 -15 -10 -8 0 -15 5 -15 10 0 6 7 10 15 10 8 0
15 -4 15 -10z m-4051 -176 c-10 -11 -19 -33 -19 -50 0 -29 -1 -28 -26 14 -19
31 -25 53 -21 75 3 18 -2 48 -9 66 -13 32 -10 30 40 -25 54 -59 54 -59 35 -80z
m-2223 65 c7 -12 -12 -29 -34 -29 -10 0 -10 4 0 20 14 23 24 25 34 9z m9091
-35 c-3 -3 -12 -4 -19 -1 -8 3 -5 6 6 6 11 1 17 -2 13 -5z m-2847 -58 c0 -2
-7 -7 -16 -10 -8 -3 -12 -2 -9 4 6 10 25 14 25 6z m-6645 -13 c-90 -21 -284
-58 -278 -52 23 21 173 58 233 57 36 0 56 -2 45 -5z m4634 -167 c15 -17 15
-18 -4 -15 -15 3 -20 13 -22 39 -1 19 1 26 4 15 3 -11 12 -28 22 -39z m-5639
-40 c0 -3 -4 -8 -10 -11 -5 -3 -10 -1 -10 4 0 6 5 11 10 11 6 0 10 -2 10 -4z
m4240 -50 c0 -3 -4 -8 -10 -11 -5 -3 -10 -1 -10 4 0 6 5 11 10 11 6 0 10 -2
10 -4z m-3755 -436 c-3 -5 -11 -10 -16 -10 -6 0 -7 5 -4 10 3 6 11 10 16 10 6
0 7 -4 4 -10z m8895 -80 c10 -6 5 -11 -20 -18 -39 -10 -54 -3 -44 22 6 16 28
15 64 -4z m-2060 -112 c35 -25 77 -74 69 -83 -5 -4 -188 53 -199 62 -3 3 6 13
19 24 31 25 71 24 111 -3z m1963 -40 l19 -33 -31 35 c-17 19 -31 39 -31 44 0
15 24 -11 43 -46z m-1596 -130 c89 -33 49 -31 -52 2 -66 22 -79 29 -48 25 24
-3 69 -15 100 -27z m828 -378 c-3 -5 -14 -10 -23 -10 -15 0 -15 2 -2 10 20 13
33 13 25 0z m1343 -65 c2 -1 -4 -5 -12 -8 -10 -4 -20 2 -27 14 -10 19 -9 20
13 8 13 -6 24 -13 26 -14z m-308 -155 c0 -18 -19 -11 -30 11 -11 19 -10 20 9
9 12 -6 21 -15 21 -20z m-8700 -20 c0 -13 -10 -24 -26 -30 -43 -17 -49 -11
-19 20 34 35 45 38 45 10z m8388 -190 c7 -18 7 -32 1 -35 -10 -7 -13 1 -24 48
-8 37 10 27 23 -13z m-8068 -50 c0 -5 -5 -10 -11 -10 -5 0 -7 5 -4 10 3 6 8
10 11 10 2 0 4 -4 4 -10z m2490 -136 c0 -8 -2 -14 -4 -14 -2 0 -11 -3 -20 -6
-19 -7 -22 16 -4 34 13 13 28 7 28 -14z m1054 -100 c3 -9 6 -26 6 -40 0 -22
-2 -23 -25 -12 -27 12 -32 37 -13 56 16 16 25 15 32 -4z m3866 -388 c0 -2 -7
-7 -16 -10 -8 -3 -12 -2 -9 4 6 10 25 14 25 6z m-2212 -281 c30 -14 60 -25 68
-25 15 0 37 -34 27 -44 -20 -20 -124 25 -167 73 -19 21 -19 21 0 21 10 0 43
-11 72 -25z m-2418 -81 c0 -2 -9 -4 -21 -4 -11 0 -18 4 -14 10 5 8 35 3 35 -6z
m322 -26 c-6 -6 -15 -8 -19 -4 -4 4 -1 11 7 16 8 5 17 7 19 4 3 -2 -1 -10 -7
-16z m-196 -359 c9 -14 -41 -55 -86 -70 -19 -7 -80 -34 -135 -60 -55 -26 -118
-51 -140 -55 -35 -5 -30 -1 41 34 44 22 101 52 125 68 149 95 179 108 195 83z
m1390 -367 c-15 -15 -16 -15 -16 1 0 9 6 26 13 38 12 20 12 20 15 -2 2 -12 -3
-29 -12 -37z m1195 -444 c8 -7 22 -22 29 -32 14 -18 14 -18 -5 -9 -25 14 -61
53 -48 53 5 0 16 -6 24 -12z m-3000 -142 c-15 -49 -24 -61 -60 -83 l-42 -25
26 54 c24 47 84 123 91 115 2 -2 -5 -29 -15 -61z m3190 -88 c99 -122 110 -141
60 -93 -48 45 -152 185 -138 185 3 0 38 -41 78 -92z m2149 -178 c0 -4 -10 -11
-23 -17 -22 -10 -23 -9 -19 24 4 33 5 33 23 17 11 -9 19 -20 19 -24z m-6844
-45 c-15 -34 -73 -125 -81 -125 -2 0 15 36 38 80 42 81 70 109 43 45z m6774
-18 c0 -2 -9 -12 -19 -21 -19 -17 -19 -17 -14 3 3 12 12 21 19 21 8 0 14 -2
14 -3z m-140 -491 c0 -2 -7 -6 -15 -10 -8 -3 -15 -1 -15 4 0 6 7 10 15 10 8 0
15 -2 15 -4z m-6446 -131 c-7 -16 -24 -21 -24 -6 0 8 7 13 27 20 1 1 0 -6 -3
-14z m5646 -239 c66 -71 65 -76 -4 -22 -34 28 -66 72 -66 92 0 4 1 5 3 3 2 -2
32 -35 67 -73z m-760 -232 c0 -8 -4 -12 -10 -9 -5 3 -10 13 -10 21 0 8 5 12
10 9 6 -3 10 -13 10 -21z m1275 -44 c-10 -11 -23 -20 -29 -20 -6 0 0 9 14 20
32 25 38 25 15 0z m-155 -21 c0 -6 -4 -7 -10 -4 -5 3 -10 11 -10 16 0 6 5 7
10 4 6 -3 10 -11 10 -16z m-2077 -239 c40 -151 94 -312 138 -409 31 -69 34
-81 19 -81 -5 0 -10 4 -10 9 0 5 -13 31 -30 58 -17 27 -36 80 -45 122 -10 46
-37 117 -72 188 -45 90 -58 127 -61 173 -5 63 3 99 17 84 5 -5 25 -70 44 -144z
m1637 -66 c0 -8 -5 -12 -10 -9 -6 4 -8 11 -5 16 9 14 15 11 15 -7z m-1170
-504 c0 -20 -2 -22 -10 -10 -5 8 -10 26 -10 40 0 20 2 22 10 10 5 -8 10 -26
10 -40z m-4085 -70 c3 -5 1 -10 -4 -10 -6 0 -11 5 -11 10 0 6 2 10 4 10 3 0 8
-4 11 -10z m1505 -118 c0 -10 -56 -62 -97 -91 -18 -12 -33 -18 -33 -12 0 6 4
11 9 11 5 0 31 22 58 50 46 48 63 59 63 42z m1870 -177 c0 -8 -10 -19 -21 -26
-22 -11 -21 -3 4 29 12 16 17 15 17 -3z m-2630 -145 c-8 -5 -19 -10 -25 -10
-5 0 -3 5 5 10 8 5 20 10 25 10 6 0 3 -5 -5 -10z"/>
</g>
</svg>
